grf
version=1
nRows=8
nColumns=28
inDegrees=no
endheader
time	ground_force_1_vx	ground_force_1_vy	ground_force_1_vz	ground_force_1_px	ground_force_1_py	ground_force_1_pz	ground_moment_1_mx	ground_moment_1_my	ground_moment_1_mz	ground_force_2_vx	ground_force_2_vy	ground_force_2_vz	ground_force_2_px	ground_force_2_py	ground_force_2_pz	ground_moment_2_mx	ground_moment_2_my	ground_moment_2_mz	ground_force_3_vx	ground_force_3_vy	ground_force_3_vz	ground_force_3_px	ground_force_3_py	ground_force_3_pz	ground_moment_3_mx	ground_moment_3_my	ground_moment_3_mz
      1.37000000	      0.46694289	      0.36605712	      1.52227269	    230.60821192	  -1221.45697592	      1.99880057	      0.10974926	      0.39685475	    217.45503472	      0.92790610	     -4.70374823	      2.81321488	    192.26007484	  -1701.51747482	      0.17059781	      0.06989060	      0.90389083	  -1083.10835642	     31.98619591	    -49.54407775	   -391.53650972	    417.20782788	   -102.19824930	     -0.00155266	      0.10995435	     -0.80771659	   -393.30963687
      1.38000000	      0.44505298	      0.47401104	      1.31676576	    242.24032434	  -1296.67156072	      2.13019624	      0.11165313	      0.40373915	    221.22731605	      1.10192539	     -4.87385738	      3.18905595	    220.25360614	  -1750.36038108	      0.13164310	      0.06750968	      0.87309845	  -1046.21066763	     23.90443420	    -42.83037203	   -359.08362232	    416.67295232	    -98.76017536	     -0.00876276	      0.21528965	     -1.58150207	   -770.09684961
      1.39000000	      0.33378933	      0.40176334	      1.18359737	    217.71126628	  -1270.71873747	      2.09521220	      0.10652349	      0.38519032	    211.06355403	      1.19608781	     -4.82011784	      2.72579447	    150.29613108	  -1669.44989560	      0.19465145	      0.08440424	      1.09159481	  -1308.02904384	     15.65003805	    -38.20853413	   -334.46528835	    416.44539640	    -94.89347181	     -0.01676720	      0.34702365	     -2.54921042	  -1241.31289317
      1.40000000	      0.44455482	      0.37060109	      1.66325863	    297.31532410	  -1260.30556772	      2.03603214	      0.08344122	      0.30172451	    165.32878773	      0.99524219	     -4.63653368	      2.47579965	    153.79864624	  -1690.22076002	      0.17754347	      0.07867453	      1.01749280	  -1219.23458042	      9.93117813	    -32.51638852	   -314.95485356	    415.19502660	    -89.10130297	     -0.02901179	      0.46651015	     -3.42694951	  -1668.71929605
      1.41000000	      0.27676300	      0.51662974	      0.78269528	     80.82755530	  -1327.26516706	      2.26749428	      0.12420907	      0.44914159	    246.10540742	      1.07092824	     -4.74831587	      3.00403643	    213.51369283	  -1756.49851319	      0.12608571	      0.06995075	      0.90466868	  -1084.04043228	      9.06625557	    -27.96822723	   -300.78217986	    413.43262491	    -84.40699729	     -0.03914490	      0.48422290	     -3.55706603	  -1732.07825414
      1.42000000	      0.24565490	      0.33535027	      0.64496171	     34.22890789	  -1495.83728319	      2.59865613	      0.08384673	      0.30319085	    166.13225871	      1.14151213	     -4.81688121	      2.64961061	    169.34410464	  -1672.97259922	      0.19294076	      0.07818369	      1.01114485	  -1211.62799432	     12.23895872	    -25.26245705	   -292.14644151	    410.11087329	    -77.82729383	     -0.05358588	      0.47413810	     -3.48298386	  -1696.00466959
      1.43000000	      0.30147600	      0.26194795	      0.61801481	     12.90863631	  -1200.90933829	      2.07117388	      0.14285708	      0.51657306	    283.05421936	      1.02090239	     -4.80309839	      2.83191978	    178.28122548	  -1731.50175278	      0.14467288	      0.07945929	      1.02764205	  -1231.39615756	     17.37961750	    -24.57530055	   -288.79038526	    405.36413593	    -71.62150443	     -0.06765735	      0.43927065	     -3.22685013	  -1571.28287279
      1.44000000	      0.31826601	      0.22563279	      1.69422237	    318.67528271	  -1317.84773185	      2.13026606	      0.06696103	      0.24213194	    132.67526545	      1.27912915	     -4.78690556	      3.46676531	    242.95691492	  -1725.96854121	      0.15346391	      0.05653915	      0.73121734	   -876.19830357	     21.72859622	    -26.25577857	   -284.92880577	    402.47842781	    -63.59785371	     -0.08494178	      0.42912094	     -3.15229107	  -1534.97707585
